<?xml version="1.0" encoding="UTF-8" standalone="no"?>
<!DOCTYPE svg PUBLIC "-//W3C//DTD SVG 1.1//EN"
 "http://www.w3.org/Graphics/SVG/1.1/DTD/svg11.dtd">
<!-- Generated by graphviz version 2.28.0 (20110507.0327)
 -->
<!-- Title: G Pages: 1 -->
<svg width="3042pt" height="2122pt"
 viewBox="0.00 0.00 3042.00 2122.00" xmlns="http://www.w3.org/2000/svg" xmlns:xlink="http://www.w3.org/1999/xlink">
<g id="graph1" class="graph" transform="scale(1 1) rotate(0) translate(4 2118)">
<title>G</title>
<polygon fill="white" stroke="white" points="-4,5 -4,-2118 3039,-2118 3039,5 -4,5"/>
<g id="graph2" class="cluster"><title>cluster_core_conf</title>
<polygon fill="lightcyan" stroke="black" points="8,-1718 8,-2106 595,-2106 595,-1718 8,-1718"/>
<text text-anchor="middle" x="301.5" y="-2090.8" font-family="KaiTi_GB2312" font-size="14.00">Nginx conf structions</text>
<text text-anchor="middle" x="301.5" y="-2075.8" font-family="KaiTi_GB2312" font-size="14.00">底层核心模块</text>
</g>
<g id="graph3" class="cluster"><title>cluster_http_conf</title>
<polygon fill="purple" stroke="black" points="751,-8 751,-1846 2349,-1846 2349,-8 751,-8"/>
</g>
<g id="graph4" class="cluster"><title>cluster_server_conf</title>
<polygon fill="green" stroke="black" points="2357,-1394 2357,-1846 2837,-1846 2837,-1394 2357,-1394"/>
</g>
<!-- cycle -->
<g id="node2" class="node"><title>cycle</title>
<polygon fill="none" stroke="skyblue" points="279.5,-1929 279.5,-2059 512.5,-2059 512.5,-1929 279.5,-1929"/>
<text text-anchor="middle" x="396" y="-2042.2" font-family="123" font-size="16.00">顶层conf_ctx数组</text>
<polyline fill="none" stroke="skyblue" points="279.5,-2033 512.5,-2033 "/>
<text text-anchor="middle" x="396" y="-2016.2" font-family="123" font-size="16.00">conf_ctx[ngx_core_module]</text>
<polyline fill="none" stroke="skyblue" points="279.5,-2007 512.5,-2007 "/>
<text text-anchor="middle" x="396" y="-1990.2" font-family="123" font-size="16.00">conf_ctx[ngx_http_module]</text>
<polyline fill="none" stroke="skyblue" points="279.5,-1981 512.5,-1981 "/>
<text text-anchor="middle" x="396" y="-1964.2" font-family="123" font-size="16.00">conf_ctx[ngx_events_module]</text>
<polyline fill="none" stroke="skyblue" points="279.5,-1955 512.5,-1955 "/>
<text text-anchor="middle" x="396" y="-1938.2" font-family="123" font-size="16.00">conf_ctx[ngx_errlog_module]</text>
</g>
<!-- NULL -->
<g id="node4" class="node"><title>NULL</title>
<polygon fill="none" stroke="skyblue" points="154,-1727 154,-1753 214,-1753 214,-1727 154,-1727"/>
<text text-anchor="middle" x="184" y="-1736.2" font-family="123" font-size="16.00">NULL</text>
</g>
<!-- cycle&#45;&gt;NULL -->
<g id="edge3" class="edge"><title>cycle:http&#45;&gt;NULL</title>
<path fill="none" stroke="crimson" d="M278,-1994C220.18,-1994 67.7732,-1948.63 35,-1901 -4.86315,-1843.06 91.0253,-1785.18 147.045,-1757.62"/>
<polygon fill="crimson" stroke="crimson" points="148.842,-1760.64 156.333,-1753.15 145.805,-1754.33 148.842,-1760.64"/>
<text text-anchor="middle" x="167.5" y="-1888.2" font-family="KaiTi_GB2312" font-size="16.00">http模块没有定义create_conf函数</text>
<text text-anchor="middle" x="167.5" y="-1870.2" font-family="KaiTi_GB2312" font-size="16.00">其配置数据在ngx_http_block设置。</text>
</g>
<!-- cycle&#45;&gt;NULL -->
<g id="edge5" class="edge"><title>cycle:event&#45;&gt;NULL</title>
<path fill="none" stroke="crimson" d="M278,-1968C190.024,-1968 182.791,-1820.66 183.303,-1763.39"/>
<polygon fill="crimson" stroke="crimson" points="186.805,-1763.27 183.487,-1753.2 179.807,-1763.14 186.805,-1763.27"/>
<text text-anchor="middle" x="333.5" y="-1879.2" font-family="KaiTi_GB2312" font-size="16.00">event模块没有定义create_conf函数</text>
</g>
<!-- ngx_core_conf_t -->
<g id="node7" class="node"><title>ngx_core_conf_t</title>
<polygon fill="none" stroke="skyblue" points="603,-1727 603,-1753 743,-1753 743,-1727 603,-1727"/>
<text text-anchor="middle" x="673" y="-1736.2" font-family="KaiTi_GB2312" font-size="16.00">ngx_core_conf_t</text>
</g>
<!-- cycle&#45;&gt;ngx_core_conf_t -->
<g id="edge7" class="edge"><title>cycle:core&#45;&gt;ngx_core_conf_t</title>
<path fill="none" stroke="crimson" d="M514,-2020C631.789,-2020 663.454,-1829.97 670.922,-1763.57"/>
<polygon fill="crimson" stroke="crimson" points="674.432,-1763.66 671.988,-1753.35 667.47,-1762.93 674.432,-1763.66"/>
<text text-anchor="middle" x="794.5" y="-1879.2" font-family="KaiTi_GB2312" font-size="16.00">ngx_core_module_create_conf返回指针</text>
</g>
<!-- ngx_http_conf_ctx_t_http -->
<g id="node9" class="node"><title>ngx_http_conf_ctx_t_http</title>
<polygon fill="none" stroke="skyblue" points="1017.5,-1643 1017.5,-1837 1232.5,-1837 1232.5,-1643 1017.5,-1643"/>
<text text-anchor="middle" x="1125" y="-1820.2" font-family="KaiTi_GB2312" font-size="16.00">http部分的ctx</text>
<text text-anchor="middle" x="1125" y="-1802.2" font-family="KaiTi_GB2312" font-size="16.00">ngx_http_conf_ctx_t</text>
<text text-anchor="middle" x="1125" y="-1784.2" font-family="KaiTi_GB2312" font-size="16.00">HTTP模块组配置</text>
<polyline fill="none" stroke="skyblue" points="1017.5,-1775 1232.5,-1775 "/>
<text text-anchor="middle" x="1125" y="-1758.2" font-family="KaiTi_GB2312" font-size="16.00">main_conf</text>
<text text-anchor="middle" x="1125" y="-1740.2" font-family="KaiTi_GB2312" font-size="16.00">create_main_conf函数返回</text>
<polyline fill="none" stroke="skyblue" points="1017.5,-1731 1232.5,-1731 "/>
<text text-anchor="middle" x="1125" y="-1714.2" font-family="KaiTi_GB2312" font-size="16.00">srv_conf</text>
<text text-anchor="middle" x="1125" y="-1696.2" font-family="KaiTi_GB2312" font-size="16.00">create_srv_conf返回</text>
<polyline fill="none" stroke="skyblue" points="1017.5,-1687 1232.5,-1687 "/>
<text text-anchor="middle" x="1125" y="-1670.2" font-family="KaiTi_GB2312" font-size="16.00">loc_conf</text>
<text text-anchor="middle" x="1125" y="-1652.2" font-family="KaiTi_GB2312" font-size="16.00">create_loc_conf返回</text>
</g>
<!-- cycle&#45;&gt;ngx_http_conf_ctx_t_http -->
<g id="edge9" class="edge"><title>cycle:http&#45;&gt;ngx_http_conf_ctx_t_http</title>
<path fill="none" stroke="crimson" d="M514,-1994C631.17,-1994 937.172,-1968.42 1033,-1901 1053.04,-1886.9 1069.31,-1866.95 1082.29,-1845.9"/>
<polygon fill="crimson" stroke="crimson" points="1085.38,-1847.54 1087.46,-1837.15 1079.36,-1843.98 1085.38,-1847.54"/>
<text text-anchor="middle" x="1193" y="-1888.2" font-family="KaiTi_GB2312" font-size="16.00">HTTP的配置</text>
<text text-anchor="middle" x="1193" y="-1870.2" font-family="KaiTi_GB2312" font-size="16.00">在ngx_http_block里将其设置的。</text>
</g>
<!-- http_main_conf -->
<g id="node11" class="node"><title>http_main_conf</title>
<polygon fill="none" stroke="skyblue" points="2046.5,-1403 2046.5,-1551 2237.5,-1551 2237.5,-1403 2046.5,-1403"/>
<text text-anchor="middle" x="2142" y="-1534.2" font-family="123" font-size="16.00">main配置数组</text>
<text text-anchor="middle" x="2142" y="-1516.2" font-family="123" font-size="16.00">每个HTTP模块一个槽位</text>
<polyline fill="none" stroke="skyblue" points="2046.5,-1507 2237.5,-1507 "/>
<text text-anchor="middle" x="2142" y="-1490.2" font-family="123" font-size="16.00">ngx_http_core_module</text>
<polyline fill="none" stroke="skyblue" points="2046.5,-1481 2237.5,-1481 "/>
<text text-anchor="middle" x="2142" y="-1464.2" font-family="123" font-size="16.00"> </text>
<polyline fill="none" stroke="skyblue" points="2046.5,-1455 2237.5,-1455 "/>
<text text-anchor="middle" x="2142" y="-1438.2" font-family="123" font-size="16.00"> </text>
<polyline fill="none" stroke="skyblue" points="2046.5,-1429 2237.5,-1429 "/>
<text text-anchor="middle" x="2142" y="-1412.2" font-family="123" font-size="16.00"> </text>
</g>
<!-- ngx_http_conf_ctx_t_http&#45;&gt;http_main_conf -->
<g id="edge12" class="edge"><title>ngx_http_conf_ctx_t_http:m&#45;&gt;http_main_conf</title>
<path fill="none" stroke="crimson" d="M1234,-1753C1536.09,-1753 1871.38,-1611.85 2037.25,-1531.8"/>
<polygon fill="crimson" stroke="crimson" points="2039,-1534.84 2046.47,-1527.32 2035.94,-1528.54 2039,-1534.84"/>
</g>
<!-- http_srv_conf -->
<g id="node17" class="node"><title>http_srv_conf</title>
<polygon fill="none" stroke="skyblue" points="1134.5,-1403 1134.5,-1551 1325.5,-1551 1325.5,-1403 1134.5,-1403"/>
<text text-anchor="middle" x="1230" y="-1534.2" font-family="123" font-size="16.00">server配置数组</text>
<text text-anchor="middle" x="1230" y="-1516.2" font-family="123" font-size="16.00">每个HTTP模块一个槽位</text>
<polyline fill="none" stroke="skyblue" points="1134.5,-1507 1325.5,-1507 "/>
<text text-anchor="middle" x="1230" y="-1490.2" font-family="123" font-size="16.00">ngx_http_core_module</text>
<polyline fill="none" stroke="skyblue" points="1134.5,-1481 1325.5,-1481 "/>
<text text-anchor="middle" x="1230" y="-1464.2" font-family="123" font-size="16.00"> </text>
<polyline fill="none" stroke="skyblue" points="1134.5,-1455 1325.5,-1455 "/>
<text text-anchor="middle" x="1230" y="-1438.2" font-family="123" font-size="16.00"> </text>
<polyline fill="none" stroke="skyblue" points="1134.5,-1429 1325.5,-1429 "/>
<text text-anchor="middle" x="1230" y="-1412.2" font-family="123" font-size="16.00"> </text>
</g>
<!-- ngx_http_conf_ctx_t_http&#45;&gt;http_srv_conf -->
<g id="edge18" class="edge"><title>ngx_http_conf_ctx_t_http:s&#45;&gt;http_srv_conf</title>
<path fill="none" stroke="crimson" d="M1234,-1709C1295.17,-1709 1282.04,-1627.03 1261.43,-1560.74"/>
<polygon fill="crimson" stroke="crimson" points="1264.72,-1559.55 1258.34,-1551.09 1258.05,-1561.68 1264.72,-1559.55"/>
</g>
<!-- http_loc_conf -->
<g id="node23" class="node"><title>http_loc_conf</title>
<polygon fill="none" stroke="skyblue" points="925.5,-1403 925.5,-1551 1116.5,-1551 1116.5,-1403 925.5,-1403"/>
<text text-anchor="middle" x="1021" y="-1534.2" font-family="123" font-size="16.00">location配置数组</text>
<text text-anchor="middle" x="1021" y="-1516.2" font-family="123" font-size="16.00">每个HTTP模块一个槽位</text>
<polyline fill="none" stroke="skyblue" points="925.5,-1507 1116.5,-1507 "/>
<text text-anchor="middle" x="1021" y="-1490.2" font-family="123" font-size="16.00">ngx_http_core_module</text>
<polyline fill="none" stroke="skyblue" points="925.5,-1481 1116.5,-1481 "/>
<text text-anchor="middle" x="1021" y="-1464.2" font-family="123" font-size="16.00"> </text>
<polyline fill="none" stroke="skyblue" points="925.5,-1455 1116.5,-1455 "/>
<text text-anchor="middle" x="1021" y="-1438.2" font-family="123" font-size="16.00"> </text>
<polyline fill="none" stroke="skyblue" points="925.5,-1429 1116.5,-1429 "/>
<text text-anchor="middle" x="1021" y="-1412.2" font-family="123" font-size="16.00"> </text>
</g>
<!-- ngx_http_conf_ctx_t_http&#45;&gt;http_loc_conf -->
<g id="edge24" class="edge"><title>ngx_http_conf_ctx_t_http:l&#45;&gt;http_loc_conf</title>
<path fill="none" stroke="crimson" d="M1125,-1642C1125,-1612.75 1113.05,-1584.48 1097.26,-1559.9"/>
<polygon fill="crimson" stroke="crimson" points="1100,-1557.71 1091.52,-1551.36 1094.19,-1561.61 1100,-1557.71"/>
</g>
<!-- ngx_http_core_main_conf_t -->
<g id="node14" class="node"><title>ngx_http_core_main_conf_t</title>
<polygon fill="none" stroke="skyblue" points="2017.5,-973 2017.5,-1329 2340.5,-1329 2340.5,-973 2017.5,-973"/>
<text text-anchor="middle" x="2179" y="-1312.2" font-family="123" font-size="16.00">ngx_http_core_main_conf_t</text>
<text text-anchor="middle" x="2179" y="-1294.2" font-family="123" font-size="16.00">nginx HTTP核心配置</text>
<polyline fill="none" stroke="skyblue" points="2017.5,-1285 2340.5,-1285 "/>
<text text-anchor="middle" x="2066" y="-1268.2" font-family="123" font-size="16.00">servers_0</text>
<polyline fill="none" stroke="skyblue" points="2114.5,-1259 2114.5,-1285 "/>
<text text-anchor="middle" x="2132" y="-1268.2" font-family="123" font-size="16.00">1</text>
<polyline fill="none" stroke="skyblue" points="2149.5,-1259 2149.5,-1285 "/>
<text text-anchor="middle" x="2168" y="-1268.2" font-family="123" font-size="16.00">2</text>
<polyline fill="none" stroke="skyblue" points="2186.5,-1259 2186.5,-1285 "/>
<text text-anchor="middle" x="2213" y="-1268.2" font-family="123" font-size="16.00">```</text>
<polyline fill="none" stroke="skyblue" points="2239.5,-1259 2239.5,-1285 "/>
<text text-anchor="middle" x="2262.5" y="-1268.2" font-family="123" font-size="16.00">99</text>
<polyline fill="none" stroke="skyblue" points="2285.5,-1259 2285.5,-1285 "/>
<text text-anchor="middle" x="2313" y="-1268.2" font-family="123" font-size="16.00">100</text>
<polyline fill="none" stroke="skyblue" points="2017.5,-1259 2340.5,-1259 "/>
<text text-anchor="middle" x="2179" y="-1242.2" font-family="123" font-size="16.00">phase_engine</text>
<polyline fill="none" stroke="skyblue" points="2017.5,-1233 2340.5,-1233 "/>
<text text-anchor="middle" x="2087" y="-1216.2" font-family="123" font-size="16.00">headers_in_hash</text>
<polyline fill="none" stroke="skyblue" points="2156.5,-1207 2156.5,-1233 "/>
<text text-anchor="middle" x="2248.5" y="-1216.2" font-family="123" font-size="16.00">著名HERDER头部哈希</text>
<polyline fill="none" stroke="skyblue" points="2017.5,-1207 2340.5,-1207 "/>
<text text-anchor="middle" x="2179" y="-1190.2" font-family="123" font-size="16.00">variables_hash</text>
<polyline fill="none" stroke="skyblue" points="2017.5,-1181 2340.5,-1181 "/>
<text text-anchor="middle" x="2179" y="-1164.2" font-family="123" font-size="16.00">variables</text>
<polyline fill="none" stroke="skyblue" points="2017.5,-1155 2340.5,-1155 "/>
<text text-anchor="middle" x="2179" y="-1138.2" font-family="123" font-size="16.00">ncaptures</text>
<polyline fill="none" stroke="skyblue" points="2017.5,-1129 2340.5,-1129 "/>
<text text-anchor="middle" x="2128.5" y="-1069.2" font-family="123" font-size="16.00">网络序的端口列表</text>
<text text-anchor="middle" x="2128.5" y="-1051.2" font-family="123" font-size="16.00">ngx_http_conf_port_t</text>
<polyline fill="none" stroke="skyblue" points="2239.5,-999 2239.5,-1129 "/>
<text text-anchor="middle" x="2290" y="-1112.2" font-family="123" font-size="16.00">ports</text>
<polyline fill="none" stroke="skyblue" points="2239.5,-1103 2340.5,-1103 "/>
<text text-anchor="middle" x="2290" y="-1086.2" font-family="123" font-size="16.00">80</text>
<polyline fill="none" stroke="skyblue" points="2239.5,-1077 2340.5,-1077 "/>
<text text-anchor="middle" x="2290" y="-1060.2" font-family="123" font-size="16.00">8080</text>
<polyline fill="none" stroke="skyblue" points="2239.5,-1051 2340.5,-1051 "/>
<text text-anchor="middle" x="2290" y="-1034.2" font-family="123" font-size="16.00">```</text>
<polyline fill="none" stroke="skyblue" points="2239.5,-1025 2340.5,-1025 "/>
<text text-anchor="middle" x="2290" y="-1008.2" font-family="123" font-size="16.00">8888</text>
<polyline fill="none" stroke="skyblue" points="2017.5,-999 2340.5,-999 "/>
<text text-anchor="middle" x="2075.5" y="-982.2" font-family="123" font-size="16.00">phases</text>
<polyline fill="none" stroke="skyblue" points="2133.5,-973 2133.5,-999 "/>
<text text-anchor="middle" x="2237" y="-982.2" font-family="123" font-size="16.00">nginx处理过程数组</text>
</g>
<!-- http_main_conf&#45;&gt;ngx_http_core_main_conf_t -->
<g id="edge14" class="edge"><title>http_main_conf&#45;&gt;ngx_http_core_main_conf_t</title>
<path fill="none" stroke="crimson" d="M2150.35,-1402.88C2152.56,-1383.54 2155.05,-1361.74 2157.61,-1339.28"/>
<polygon fill="crimson" stroke="crimson" points="2161.1,-1339.6 2158.76,-1329.27 2154.14,-1338.81 2161.1,-1339.6"/>
<text text-anchor="middle" x="2255.5" y="-1362.2" font-family="KaiTi_GB2312" font-size="16.00">ngx_http_core_module类型</text>
</g>
<!-- ngx_http_upstream_main_conf_t -->
<g id="node16" class="node"><title>ngx_http_upstream_main_conf_t</title>
<polygon fill="none" stroke="skyblue" points="1738.5,-1138 1738.5,-1164 1999.5,-1164 1999.5,-1138 1738.5,-1138"/>
<text text-anchor="middle" x="1869" y="-1147.2" font-family="123" font-size="16.00">ngx_http_upstream_main_conf_t</text>
</g>
<!-- http_main_conf&#45;&gt;ngx_http_upstream_main_conf_t -->
<g id="edge16" class="edge"><title>http_main_conf&#45;&gt;ngx_http_upstream_main_conf_t</title>
<path fill="none" stroke="crimson" d="M2046.26,-1454.24C2001.07,-1439.22 1950.12,-1414.58 1918,-1375 1869.52,-1315.26 1866.38,-1217.91 1867.71,-1174.33"/>
<polygon fill="crimson" stroke="crimson" points="1871.21,-1174.37 1868.12,-1164.23 1864.21,-1174.08 1871.21,-1174.37"/>
<text text-anchor="middle" x="2034" y="-1362.2" font-family="KaiTi_GB2312" font-size="16.00">ngx_http_upstream_module类型</text>
</g>
<!-- ngx_http_core_srv_conf_t -->
<g id="node20" class="node"><title>ngx_http_core_srv_conf_t</title>
<polygon fill="none" stroke="skyblue" points="1811.5,-17 1811.5,-183 2044.5,-183 2044.5,-17 1811.5,-17"/>
<text text-anchor="middle" x="1928" y="-166.2" font-family="123" font-size="16.00">ngx_http_core_srv_conf_t</text>
<text text-anchor="middle" x="1928" y="-148.2" font-family="123" font-size="16.00">主要的srv_conf</text>
<text text-anchor="middle" x="1928" y="-130.2" font-family="123" font-size="16.00">cscf</text>
<polyline fill="none" stroke="skyblue" points="1811.5,-121 2044.5,-121 "/>
<text text-anchor="middle" x="1928" y="-104.2" font-family="123" font-size="16.00">server_names</text>
<polyline fill="none" stroke="skyblue" points="1811.5,-95 2044.5,-95 "/>
<text text-anchor="middle" x="1928" y="-78.2" font-family="123" font-size="16.00">ctx</text>
<polyline fill="none" stroke="skyblue" points="1811.5,-69 2044.5,-69 "/>
<text text-anchor="middle" x="1928" y="-52.2" font-family="123" font-size="16.00">client_header_buffer_size</text>
<polyline fill="none" stroke="skyblue" points="1811.5,-43 2044.5,-43 "/>
<text text-anchor="middle" x="1928" y="-26.2" font-family="123" font-size="16.00">named_locations命名locations</text>
</g>
<!-- ngx_http_core_main_conf_t&#45;&gt;ngx_http_core_srv_conf_t -->
<g id="edge51" class="edge"><title>ngx_http_core_main_conf_t:servers_1&#45;&gt;ngx_http_core_srv_conf_t</title>
<path fill="none" stroke="crimson" d="M2130.44,-1258.86C2124.43,-1213.5 2098.87,-1061.39 2018,-972.5 1993.49,-945.557 1900.5,-921.368 1871,-900 1746.54,-809.841 1706.56,-785.678 1629,-653 1534.17,-490.775 1537.49,-433.035 1511,-247 1508.74,-231.16 1500.81,-223.339 1511,-211 1551.34,-162.133 1589.46,-199.114 1651,-184 1700.72,-171.79 1754.78,-156.138 1801.83,-141.723"/>
<polygon fill="crimson" stroke="crimson" points="1802.93,-145.048 1811.46,-138.763 1800.87,-138.358 1802.93,-145.048"/>
<text text-anchor="middle" x="1712" y="-622.2" font-family="KaiTi_GB2312" font-size="16.00">增加一个虚拟主机配置</text>
</g>
<!-- ngx_http_conf_port_t -->
<g id="node31" class="node"><title>ngx_http_conf_port_t</title>
<polygon fill="none" stroke="skyblue" points="1880,-681 1880,-899 2094,-899 2094,-681 1880,-681"/>
<text text-anchor="middle" x="1987" y="-882.2" font-family="123" font-size="16.00">ngx_http_conf_port_t</text>
<text text-anchor="middle" x="1987" y="-864.2" font-family="123" font-size="16.00">端口信息：</text>
<polyline fill="none" stroke="skyblue" points="1880,-855 2094,-855 "/>
<text text-anchor="middle" x="1937" y="-838.2" font-family="123" font-size="16.00">family</text>
<polyline fill="none" stroke="skyblue" points="1994,-829 1994,-855 "/>
<text text-anchor="middle" x="2044" y="-838.2" font-family="123" font-size="16.00">port</text>
<polyline fill="none" stroke="skyblue" points="1880,-829 2094,-829 "/>
<text text-anchor="middle" x="1987" y="-812.2" font-family="123" font-size="16.00">addrs地址信息</text>
<text text-anchor="middle" x="1987" y="-794.2" font-family="123" font-size="16.00">ngx_http_conf_addr_t数组</text>
<polyline fill="none" stroke="skyblue" points="1880,-785 2094,-785 "/>
<text text-anchor="middle" x="1987" y="-768.2" font-family="123" font-size="16.00">0</text>
<polyline fill="none" stroke="skyblue" points="1880,-759 2094,-759 "/>
<text text-anchor="middle" x="1987" y="-742.2" font-family="123" font-size="16.00">1</text>
<polyline fill="none" stroke="skyblue" points="1880,-733 2094,-733 "/>
<text text-anchor="middle" x="1987" y="-716.2" font-family="123" font-size="16.00">··</text>
<polyline fill="none" stroke="skyblue" points="1880,-707 2094,-707 "/>
<text text-anchor="middle" x="1987" y="-690.2" font-family="123" font-size="16.00">9</text>
</g>
<!-- ngx_http_core_main_conf_t&#45;&gt;ngx_http_conf_port_t -->
<g id="edge32" class="edge"><title>ngx_http_core_main_conf_t:ports&#45;&gt;ngx_http_conf_port_t</title>
<path fill="none" stroke="crimson" d="M2342,-1116C2406,-1116 2384.66,-1018.8 2341,-972 2287.33,-914.473 2041.65,-1002.54 1988,-945 1978.46,-934.772 1972.78,-922.295 1969.78,-908.915"/>
<polygon fill="crimson" stroke="crimson" points="1973.22,-908.278 1968.05,-899.031 1966.32,-909.485 1973.22,-908.278"/>
<text text-anchor="middle" x="2062.5" y="-932.2" font-family="KaiTi_GB2312" font-size="16.00">整个HTTP的端口数据</text>
</g>
<!-- ngx_http_core_main_conf_t&#45;&gt;ngx_http_conf_port_t -->
<g id="edge53" class="edge"><title>ngx_http_core_main_conf_t:ports&#45;&gt;ngx_http_conf_port_t</title>
<path fill="none" stroke="crimson" d="M2342,-1116C2406,-1116 2381.24,-1021.77 2341,-972 2306.08,-928.817 2270.11,-966.723 2219,-945 2178.94,-927.974 2138.37,-903.877 2102.59,-879.787"/>
<polygon fill="crimson" stroke="crimson" points="2104.32,-876.729 2094.08,-873.997 2100.38,-882.516 2104.32,-876.729"/>
<text text-anchor="middle" x="2310" y="-932.2" font-family="KaiTi_GB2312" font-size="16.00">指向这个端口的相关信息</text>
</g>
<!-- http_srv_conf&#45;&gt;ngx_http_core_srv_conf_t -->
<g id="edge20" class="edge"><title>http_srv_conf&#45;&gt;ngx_http_core_srv_conf_t</title>
<path fill="none" stroke="crimson" d="M1230,-1402.97C1230,-1337.31 1230,-1238.2 1230,-1152 1230,-1152 1230,-1152 1230,-422 1230,-269.002 1362.27,-273.319 1502,-211 1563.46,-183.587 1585.55,-199.683 1651,-184 1700.67,-172.098 1754.61,-156.546 1801.58,-142.126"/>
<polygon fill="crimson" stroke="crimson" points="1802.66,-145.456 1811.19,-139.164 1800.6,-138.766 1802.66,-145.456"/>
<text text-anchor="middle" x="1259" y="-786.2" font-family="KaiTi_GB2312" font-size="16.00">srv配置</text>
</g>
<!-- ngx_http_ssl_create_srv_conf -->
<g id="node22" class="node"><title>ngx_http_ssl_create_srv_conf</title>
<polygon fill="none" stroke="skyblue" points="1485.5,-1138 1485.5,-1164 1720.5,-1164 1720.5,-1138 1485.5,-1138"/>
<text text-anchor="middle" x="1603" y="-1147.2" font-family="123" font-size="16.00">ngx_http_ssl_create_srv_conf</text>
</g>
<!-- http_srv_conf&#45;&gt;ngx_http_ssl_create_srv_conf -->
<g id="edge22" class="edge"><title>http_srv_conf&#45;&gt;ngx_http_ssl_create_srv_conf</title>
<path fill="none" stroke="crimson" d="M1325.57,-1431.26C1373.91,-1405.8 1431.58,-1370.84 1476,-1330 1528.37,-1281.86 1572.12,-1208.83 1591.81,-1173.13"/>
<polygon fill="crimson" stroke="crimson" points="1595.01,-1174.57 1596.71,-1164.11 1588.86,-1171.22 1595.01,-1174.57"/>
<text text-anchor="middle" x="1470" y="-1362.2" font-family="KaiTi_GB2312" font-size="16.00">srv配置</text>
</g>
<!-- ngx_http_core_loc_conf_t -->
<g id="node26" class="node"><title>ngx_http_core_loc_conf_t</title>
<polygon fill="none" stroke="skyblue" points="759.5,-1138 759.5,-1164 968.5,-1164 968.5,-1138 759.5,-1138"/>
<text text-anchor="middle" x="864" y="-1147.2" font-family="123" font-size="16.00">ngx_http_core_loc_conf_t</text>
</g>
<!-- http_srv_conf&#45;&gt;ngx_http_core_loc_conf_t -->
<g id="edge26" class="edge"><title>http_srv_conf&#45;&gt;ngx_http_core_loc_conf_t</title>
<path fill="none" stroke="crimson" d="M1142.23,-1402.88C1136.56,-1399.61 1130.8,-1396.61 1125,-1394 1082.96,-1375.05 1063.8,-1396.49 1023,-1375 997.975,-1361.82 995.73,-1352.04 978,-1330 935.497,-1277.17 894.964,-1207.88 875.696,-1173.41"/>
<polygon fill="crimson" stroke="crimson" points="878.539,-1171.32 870.631,-1164.27 872.416,-1174.71 878.539,-1171.32"/>
<text text-anchor="middle" x="1073" y="-1362.2" font-family="KaiTi_GB2312" font-size="16.00">core位置配置</text>
</g>
<!-- ngx_http_fastcgi_loc_conf_t -->
<g id="node28" class="node"><title>ngx_http_fastcgi_loc_conf_t</title>
<polygon fill="none" stroke="skyblue" points="987,-1138 987,-1164 1211,-1164 1211,-1138 987,-1138"/>
<text text-anchor="middle" x="1099" y="-1147.2" font-family="123" font-size="16.00">ngx_http_fastcgi_loc_conf_t</text>
</g>
<!-- http_srv_conf&#45;&gt;ngx_http_fastcgi_loc_conf_t -->
<g id="edge28" class="edge"><title>http_srv_conf&#45;&gt;ngx_http_fastcgi_loc_conf_t</title>
<path fill="none" stroke="crimson" d="M1151.44,-1402.87C1144.76,-1394.01 1138.76,-1384.66 1134,-1375 1100.84,-1307.7 1097.7,-1216.34 1098.23,-1174.55"/>
<polygon fill="crimson" stroke="crimson" points="1101.73,-1174.43 1098.45,-1164.36 1094.73,-1174.28 1101.73,-1174.43"/>
<text text-anchor="middle" x="1179.5" y="-1362.2" font-family="KaiTi_GB2312" font-size="16.00">fastcgi配置</text>
</g>
<!-- ngx_http_proxy_loc_conf_t -->
<g id="node30" class="node"><title>ngx_http_proxy_loc_conf_t</title>
<polygon fill="none" stroke="skyblue" points="1249,-1138 1249,-1164 1467,-1164 1467,-1138 1249,-1138"/>
<text text-anchor="middle" x="1358" y="-1147.2" font-family="123" font-size="16.00">ngx_http_proxy_loc_conf_t</text>
</g>
<!-- http_srv_conf&#45;&gt;ngx_http_proxy_loc_conf_t -->
<g id="edge30" class="edge"><title>http_srv_conf&#45;&gt;ngx_http_proxy_loc_conf_t</title>
<path fill="none" stroke="crimson" d="M1258.89,-1402.88C1288.03,-1329.12 1331.24,-1219.75 1349.43,-1173.69"/>
<polygon fill="crimson" stroke="crimson" points="1352.79,-1174.71 1353.21,-1164.13 1346.28,-1172.14 1352.79,-1174.71"/>
<text text-anchor="middle" x="1305" y="-1362.2" font-family="KaiTi_GB2312" font-size="16.00">loc配置</text>
</g>
<!-- ngx_http_conf_ctx_t_server -->
<g id="node38" class="node"><title>ngx_http_conf_ctx_t_server</title>
<polygon fill="none" stroke="skyblue" points="2617,-1643 2617,-1837 2829,-1837 2829,-1643 2617,-1643"/>
<text text-anchor="middle" x="2723" y="-1820.2" font-family="123" font-size="16.00">server部分ctx</text>
<text text-anchor="middle" x="2723" y="-1802.2" font-family="123" font-size="16.00">ngx_http_conf_ctx_t</text>
<text text-anchor="middle" x="2723" y="-1784.2" font-family="123" font-size="16.00">HTTP模块组配置</text>
<polyline fill="none" stroke="skyblue" points="2617,-1775 2829,-1775 "/>
<text text-anchor="middle" x="2723" y="-1758.2" font-family="123" font-size="16.00">main_conf</text>
<text text-anchor="middle" x="2723" y="-1740.2" font-family="123" font-size="16.00">create_main_conf函数返回</text>
<polyline fill="none" stroke="skyblue" points="2617,-1731 2829,-1731 "/>
<text text-anchor="middle" x="2723" y="-1714.2" font-family="123" font-size="16.00">srv_conf</text>
<text text-anchor="middle" x="2723" y="-1696.2" font-family="123" font-size="16.00">create_srv_conf返回</text>
<polyline fill="none" stroke="skyblue" points="2617,-1687 2829,-1687 "/>
<text text-anchor="middle" x="2723" y="-1670.2" font-family="123" font-size="16.00">loc_conf</text>
<text text-anchor="middle" x="2723" y="-1652.2" font-family="123" font-size="16.00">create_loc_conf返回</text>
</g>
<!-- ngx_http_core_srv_conf_t&#45;&gt;ngx_http_conf_ctx_t_server -->
<g id="edge45" class="edge"><title>ngx_http_core_srv_conf_t:ctx&#45;&gt;ngx_http_conf_ctx_t_server</title>
<path fill="none" stroke="crimson" d="M2046,-82C2228.59,-82 2794,-239.412 2794,-422 2794,-1478 2794,-1478 2794,-1478 2794,-1530.28 2780.57,-1586.45 2765.4,-1633.24"/>
<polygon fill="crimson" stroke="crimson" points="2762.06,-1632.18 2762.24,-1642.77 2768.71,-1634.38 2762.06,-1632.18"/>
<text text-anchor="middle" x="2914" y="-932.2" font-family="KaiTi_GB2312" font-size="16.00">指向本srv_conf所属的ctx上下文</text>
</g>
<!-- ngx_http_conf_addr_t -->
<g id="node32" class="node"><title>ngx_http_conf_addr_t</title>
<polygon fill="none" stroke="skyblue" points="1740.5,-275 1740.5,-571 1971.5,-571 1971.5,-275 1740.5,-275"/>
<text text-anchor="middle" x="1856" y="-554.2" font-family="123" font-size="16.00">一个唯一的监听地址结构</text>
<text text-anchor="middle" x="1856" y="-536.2" font-family="123" font-size="16.00">ngx_http_conf_addr_t</text>
<polyline fill="none" stroke="skyblue" points="1740.5,-527 1971.5,-527 "/>
<text text-anchor="middle" x="1856" y="-510.2" font-family="123" font-size="16.00">opt</text>
<polyline fill="none" stroke="skyblue" points="1740.5,-501 1971.5,-501 "/>
<text text-anchor="middle" x="1856" y="-484.2" font-family="123" font-size="16.00">hash</text>
<polyline fill="none" stroke="skyblue" points="1740.5,-475 1971.5,-475 "/>
<text text-anchor="middle" x="1856" y="-458.2" font-family="123" font-size="16.00">regex</text>
<polyline fill="none" stroke="skyblue" points="1740.5,-449 1971.5,-449 "/>
<text text-anchor="middle" x="1856" y="-432.2" font-family="123" font-size="16.00">default_server</text>
<text text-anchor="middle" x="1856" y="-414.2" font-family="123" font-size="16.00">指向默认server的ctx</text>
<polyline fill="none" stroke="skyblue" points="1740.5,-405 1971.5,-405 "/>
<text text-anchor="middle" x="1823" y="-336.2" font-family="123" font-size="16.00">服务的虚拟主机列表</text>
<polyline fill="none" stroke="skyblue" points="1905.5,-275 1905.5,-405 "/>
<text text-anchor="middle" x="1938.5" y="-388.2" font-family="123" font-size="16.00">servers</text>
<polyline fill="none" stroke="skyblue" points="1905.5,-379 1971.5,-379 "/>
<text text-anchor="middle" x="1938.5" y="-362.2" font-family="123" font-size="16.00">0</text>
<polyline fill="none" stroke="skyblue" points="1905.5,-353 1971.5,-353 "/>
<text text-anchor="middle" x="1938.5" y="-336.2" font-family="123" font-size="16.00">1</text>
<polyline fill="none" stroke="skyblue" points="1905.5,-327 1971.5,-327 "/>
<text text-anchor="middle" x="1938.5" y="-310.2" font-family="123" font-size="16.00">```</text>
<polyline fill="none" stroke="skyblue" points="1905.5,-301 1971.5,-301 "/>
<text text-anchor="middle" x="1938.5" y="-284.2" font-family="123" font-size="16.00">9</text>
</g>
<!-- ngx_http_conf_port_t&#45;&gt;ngx_http_conf_addr_t -->
<g id="edge34" class="edge"><title>ngx_http_conf_port_t:addrs&#45;&gt;ngx_http_conf_addr_t</title>
<path fill="none" stroke="crimson" d="M1879,-807C1783.48,-807 1787.75,-686.827 1809.99,-581.111"/>
<polygon fill="crimson" stroke="crimson" points="1813.43,-581.77 1812.13,-571.256 1806.59,-580.289 1813.43,-581.77"/>
<text text-anchor="middle" x="1889" y="-640.2" font-family="KaiTi_GB2312" font-size="16.00">127.0.0.1:80;</text>
<text text-anchor="middle" x="1889" y="-622.2" font-family="KaiTi_GB2312" font-size="16.00">80;unix:path</text>
<text text-anchor="middle" x="1889" y="-604.2" font-family="KaiTi_GB2312" font-size="16.00">相同端口，不同的地址</text>
</g>
<!-- ngx_http_conf_addr_t&#45;&gt;ngx_http_core_srv_conf_t -->
<g id="edge55" class="edge"><title>ngx_http_conf_addr_t:ds&#45;&gt;ngx_http_core_srv_conf_t</title>
<path fill="none" stroke="crimson" d="M1739,-427C1671,-427 1704.73,-332.142 1740,-274 1753.3,-252.071 1772.14,-264.38 1791,-247 1804.96,-234.133 1801.97,-225.693 1814,-211 1819.63,-204.123 1825.65,-197.229 1831.88,-190.433"/>
<polygon fill="crimson" stroke="crimson" points="1834.46,-192.804 1838.71,-183.102 1829.34,-188.032 1834.46,-192.804"/>
<text text-anchor="middle" x="1917.5" y="-234.2" font-family="KaiTi_GB2312" font-size="16.00">指向本端口所服务</text>
<text text-anchor="middle" x="1917.5" y="-216.2" font-family="KaiTi_GB2312" font-size="16.00">的默认server_name虚拟主机</text>
</g>
<!-- ngx_http_conf_addr_t&#45;&gt;ngx_http_core_srv_conf_t -->
<g id="edge57" class="edge"><title>ngx_http_conf_addr_t:servers_1&#45;&gt;ngx_http_core_srv_conf_t</title>
<path fill="none" stroke="crimson" d="M1973,-340C2034.17,-340 2042.03,-268.445 2021,-211 2018.63,-204.531 2015.7,-198.18 2012.34,-191.998"/>
<polygon fill="crimson" stroke="crimson" points="2015.2,-189.951 2007.15,-183.066 2009.15,-193.47 2015.2,-189.951"/>
<text text-anchor="middle" x="2179" y="-225.2" font-family="KaiTi_GB2312" font-size="16.00">指向本唯一端口对应的虚拟主机server{}</text>
</g>
<!-- ngx_http_listen_opt_t -->
<g id="node33" class="node"><title>ngx_http_listen_opt_t</title>
<polygon fill="none" stroke="skyblue" points="1408,-35 1408,-165 1642,-165 1642,-35 1408,-35"/>
<text text-anchor="middle" x="1525" y="-148.2" font-family="123" font-size="16.00">一个listen ***;的唯一配置信息</text>
<polyline fill="none" stroke="skyblue" points="1408,-139 1642,-139 "/>
<text text-anchor="middle" x="1525" y="-122.2" font-family="123" font-size="16.00">u地址信息sockaddr</text>
<polyline fill="none" stroke="skyblue" points="1408,-113 1642,-113 "/>
<text text-anchor="middle" x="1525" y="-96.2" font-family="123" font-size="16.00">是否默认</text>
<polyline fill="none" stroke="skyblue" points="1408,-87 1642,-87 "/>
<text text-anchor="middle" x="1525" y="-70.2" font-family="123" font-size="16.00">backlog</text>
<polyline fill="none" stroke="skyblue" points="1408,-61 1642,-61 "/>
<text text-anchor="middle" x="1525" y="-44.2" font-family="123" font-size="16.00">rcvbuf</text>
</g>
<!-- ngx_http_conf_addr_t&#45;&gt;ngx_http_listen_opt_t -->
<g id="edge36" class="edge"><title>ngx_http_conf_addr_t:opt&#45;&gt;ngx_http_listen_opt_t</title>
<path fill="none" stroke="crimson" d="M1739,-514C1586.08,-514 1573.17,-391.1 1522,-247 1514.02,-224.524 1512.31,-198.85 1513.34,-175.364"/>
<polygon fill="crimson" stroke="crimson" points="1516.85,-175.293 1513.96,-165.099 1509.86,-174.867 1516.85,-175.293"/>
<text text-anchor="middle" x="1654.5" y="-225.2" font-family="KaiTi_GB2312" font-size="16.00">指向这个唯一监听地址的所有配置。</text>
</g>
<!-- ngx_http_conf_ctx_t_server&#45;&gt;http_main_conf -->
<g id="edge49" class="edge"><title>ngx_http_conf_ctx_t_server:m&#45;&gt;http_main_conf</title>
<path fill="none" stroke="crimson" d="M2616,-1753C2603.63,-1753 2616.53,-1650.96 2608,-1642 2573.73,-1606.01 2427.52,-1642.31 2386,-1615 2370.53,-1604.82 2378.75,-1591.41 2365,-1579 2331.48,-1548.76 2287.37,-1526.22 2247.25,-1510.2"/>
<polygon fill="crimson" stroke="crimson" points="2248.27,-1506.85 2237.68,-1506.48 2245.73,-1513.37 2248.27,-1506.85"/>
<text text-anchor="middle" x="2535" y="-1593.2" font-family="KaiTi_GB2312" font-size="16.00">server的main_conf等于http的main_conf</text>
</g>
<!-- server_srv_conf -->
<g id="node39" class="node"><title>server_srv_conf</title>
<polygon fill="none" stroke="skyblue" points="2365.5,-1403 2365.5,-1551 2556.5,-1551 2556.5,-1403 2365.5,-1403"/>
<text text-anchor="middle" x="2461" y="-1534.2" font-family="123" font-size="16.00">server配置数组</text>
<text text-anchor="middle" x="2461" y="-1516.2" font-family="123" font-size="16.00">每个HTTP模块一个槽位</text>
<polyline fill="none" stroke="skyblue" points="2365.5,-1507 2556.5,-1507 "/>
<text text-anchor="middle" x="2461" y="-1490.2" font-family="123" font-size="16.00">ngx_http_core_module</text>
<polyline fill="none" stroke="skyblue" points="2365.5,-1481 2556.5,-1481 "/>
<text text-anchor="middle" x="2461" y="-1464.2" font-family="123" font-size="16.00"> </text>
<polyline fill="none" stroke="skyblue" points="2365.5,-1455 2556.5,-1455 "/>
<text text-anchor="middle" x="2461" y="-1438.2" font-family="123" font-size="16.00"> </text>
<polyline fill="none" stroke="skyblue" points="2365.5,-1429 2556.5,-1429 "/>
<text text-anchor="middle" x="2461" y="-1412.2" font-family="123" font-size="16.00"> </text>
</g>
<!-- ngx_http_conf_ctx_t_server&#45;&gt;server_srv_conf -->
<g id="edge39" class="edge"><title>ngx_http_conf_ctx_t_server:s&#45;&gt;server_srv_conf</title>
<path fill="none" stroke="crimson" d="M2616,-1709C2608.55,-1709 2612.73,-1648.1 2617,-1642 2636.37,-1614.35 2668.83,-1642.79 2688,-1615 2697.08,-1601.83 2698.02,-1591.48 2688,-1579 2653.23,-1535.7 2616.8,-1574.43 2566,-1552 2565.9,-1551.96 2565.8,-1551.91 2565.7,-1551.87"/>
<polygon fill="crimson" stroke="crimson" points="2567.06,-1548.64 2556.52,-1547.52 2564.06,-1554.96 2567.06,-1548.64"/>
</g>
<!-- server_loc_conf -->
<g id="node41" class="node"><title>server_loc_conf</title>
<polygon fill="none" stroke="skyblue" points="2574.5,-1403 2574.5,-1551 2765.5,-1551 2765.5,-1403 2574.5,-1403"/>
<text text-anchor="middle" x="2670" y="-1534.2" font-family="123" font-size="16.00">location配置数组</text>
<text text-anchor="middle" x="2670" y="-1516.2" font-family="123" font-size="16.00">每个HTTP模块一个槽位</text>
<polyline fill="none" stroke="skyblue" points="2574.5,-1507 2765.5,-1507 "/>
<text text-anchor="middle" x="2670" y="-1490.2" font-family="123" font-size="16.00">ngx_http_core_module</text>
<polyline fill="none" stroke="skyblue" points="2574.5,-1481 2765.5,-1481 "/>
<text text-anchor="middle" x="2670" y="-1464.2" font-family="123" font-size="16.00"> </text>
<polyline fill="none" stroke="skyblue" points="2574.5,-1455 2765.5,-1455 "/>
<text text-anchor="middle" x="2670" y="-1438.2" font-family="123" font-size="16.00"> </text>
<polyline fill="none" stroke="skyblue" points="2574.5,-1429 2765.5,-1429 "/>
<text text-anchor="middle" x="2670" y="-1412.2" font-family="123" font-size="16.00"> </text>
</g>
<!-- ngx_http_conf_ctx_t_server&#45;&gt;server_loc_conf -->
<g id="edge41" class="edge"><title>ngx_http_conf_ctx_t_server:l&#45;&gt;server_loc_conf</title>
<path fill="none" stroke="crimson" d="M2723,-1642C2723,-1614.8 2716.32,-1586.25 2707.7,-1560.72"/>
<polygon fill="crimson" stroke="crimson" points="2710.94,-1559.37 2704.31,-1551.1 2704.33,-1561.69 2710.94,-1559.37"/>
</g>
<!-- server_srv_conf&#45;&gt;ngx_http_core_srv_conf_t -->
<g id="edge43" class="edge"><title>server_srv_conf:core&#45;&gt;ngx_http_core_srv_conf_t</title>
<path fill="none" stroke="crimson" d="M2364,-1494C2343.55,-1494 2362.87,-1422.33 2365,-1402 2376.78,-1289.3 2415,-1265.31 2415,-1152 2415,-1152 2415,-1152 2415,-422 2415,-321.228 2407.03,-278.272 2332,-211 2256.17,-143.014 2142.34,-116.496 2054.81,-106.42"/>
<polygon fill="crimson" stroke="crimson" points="2055.14,-102.934 2044.82,-105.326 2054.38,-109.893 2055.14,-102.934"/>
<text text-anchor="middle" x="2551.5" y="-786.2" font-family="KaiTi_GB2312" font-size="16.00">ngx_http_core_create_srv_conf返回</text>
</g>
<!-- cmcf -->
<g id="node45" class="node"><title>cmcf</title>
<polygon fill="none" stroke="skyblue" points="2365,-1709 2365,-1771 2599,-1771 2599,-1709 2365,-1709"/>
<text text-anchor="middle" x="2482" y="-1754.2" font-family="123" font-size="16.00">cmcf</text>
<text text-anchor="middle" x="2482" y="-1736.2" font-family="123" font-size="16.00">核心main_conf</text>
<text text-anchor="middle" x="2482" y="-1718.2" font-family="123" font-size="16.00">跟HTTP的main_conf共享的。</text>
</g>
<!-- cmcf&#45;&gt;http_main_conf -->
<g id="edge47" class="edge"><title>cmcf&#45;&gt;http_main_conf:core</title>
<path fill="none" stroke="crimson" d="M2451.46,-1708.84C2426.96,-1686.55 2390.56,-1657.49 2353,-1642 2312.56,-1625.32 2186.73,-1647.99 2158,-1615 2102.73,-1551.55 2230.2,-1562.67 2238,-1552 2250.72,-1534.6 2260.89,-1505.76 2248.82,-1496.77"/>
<polygon fill="crimson" stroke="crimson" points="2249.57,-1493.34 2239,-1494 2247.68,-1500.08 2249.57,-1493.34"/>
<text text-anchor="middle" x="2261.5" y="-1602.2" font-family="KaiTi_GB2312" font-size="16.00">指向http的main_conf</text>
<text text-anchor="middle" x="2261.5" y="-1584.2" font-family="KaiTi_GB2312" font-size="16.00">server没有独立的main_conf</text>
</g>
</g>
</svg>
